<svg xmlns="http://www.w3.org/2000/svg" viewBox="0 0 64 64" width="64" height="64" role="img" aria-label="Tropical cyclone">
  <circle cx="32" cy="32" r="30" fill="#1F3A63"/>
  <g fill="#FDFCFA">
    <path d="M32.00 56.50 L31.29 56.68 L30.58 56.66 L29.87 56.60 L29.17 56.49 L28.47 56.36 L27.78 56.20 L27.09 56.01 L26.42 55.80 L25.75 55.57 L25.09 55.32 L24.45 55.05 L23.81 54.75 L23.18 54.44 L22.57 54.11 L21.97 53.76 L21.38 53.40 L20.80 53.02 L20.24 52.62 L19.69 52.21 L19.16 51.78 L18.64 51.34 L18.13 50.88 L17.64 50.41 L17.17 49.93 L16.71 49.43 L16.27 48.93 L15.85 48.41 L15.44 47.88 L15.05 47.35 L14.67 46.80 L14.32 46.24 L13.98 45.68 L13.66 45.11 L13.36 44.53 L13.07 43.94 L12.81 43.35 L12.56 42.75 L12.33 42.15 L12.12 41.55 L11.92 40.94 L11.75 40.33 L11.60 39.71 L11.46 39.09 L11.34 38.47 L11.24 37.85 L11.16 37.23 L11.10 36.62 L11.05 36.00 L11.02 35.38 L11.02 34.76 L11.03 34.15 L11.05 33.54 L11.10 32.93 L11.16 32.33 L11.24 31.73 L11.34 31.13 L11.45 30.55 L11.58 29.96 L11.73 29.39 L11.89 28.81 L12.07 28.25 L12.26 27.70 L12.47 27.15 L12.70 26.61 L12.94 26.08 L13.19 25.56 L13.46 25.05 L13.74 24.55 L14.04 24.06 L14.34 23.58 L14.66 23.11 L15.00 22.65 L15.34 22.21 L15.70 21.77 L16.06 21.35 L16.44 20.94 L16.83 20.55 L17.23 20.16 L17.63 19.80 L18.05 19.44 L18.48 19.10 L18.91 18.77 L19.35 18.46 L19.80 18.16 L20.25 17.87 L20.71 17.60 L21.18 17.34 L21.65 17.10 L22.12 16.88 L22.60 16.67 L23.09 16.47 L23.58 16.29 L24.07 16.12 L24.56 15.97 L25.06 15.84 L25.55 15.72 L26.05 15.61 L26.55 15.52 L27.05 15.45 L27.55 15.39 L28.05 15.34 L28.54 15.31 L29.04 15.30 L29.53 15.29 L30.02 15.31 L30.51 15.34 L31.00 15.38 L31.48 15.44 L31.96 15.51 L32.43 15.59 L32.90 15.69 L33.36 15.80 L33.82 15.92 L34.27 16.06 L34.71 16.21 L35.15 16.37 L35.58 16.54 L36.01 16.73 L36.42 16.93 L36.83 17.13 L37.23 17.35 L37.62 17.58 L38.00 17.82 L38.38 18.08 L38.74 18.34 L39.09 18.61 L39.44 18.88 L39.77 19.17 L40.09 19.47 L40.41 19.77 L40.71 20.08 L41.00 20.40 L41.28 20.73 L41.55 21.06 L41.80 21.40 L42.05 21.74 L42.28 22.09 L42.50 22.44 L42.71 22.80 L42.91 23.16 L43.10 23.53 L43.27 23.90 L43.43 24.27 L43.58 24.65 L43.72 25.03 L43.84 25.41 L43.96 25.79 L44.06 26.17 L44.14 26.55 L44.22 26.94 L44.28 27.32 L44.34 27.70 L44.38 28.09 L44.40 28.47 L44.42 28.85 L44.42 29.22 L44.42 29.60 L44.40 29.97 L44.37 30.34 L44.33 30.70 L44.28 31.07 L44.21 31.42 L44.14 31.78 L44.06 32.13 L43.96 32.47 L43.86 32.81 L43.74 33.14 L43.62 33.47 L43.48 33.79 L43.34 34.10 L43.19 34.41 L43.03 34.71 L42.86 35.00 L42.68 35.29 L42.50 35.56 L42.31 35.83 L42.11 36.09 L41.90 36.35 L41.69 36.59 L41.47 36.82 L41.24 37.05 L41.01 37.26 L40.77 37.47 L40.53 37.67 L40.28 37.85 L40.03 38.03 L39.77 38.19 L39.51 38.34 L39.24 38.49 L38.97 38.62 L38.70 38.74 L38.43 38.84 L38.15 38.94 L37.87 39.02 L37.58 39.08 L37.29 39.13 L37.00 39.16 L36.70 39.16 L36.39 39.13 L36.00 38.93 L36.00 38.93 L36.05 38.57 L36.18 38.36 L36.32 38.18 L36.46 38.01 L36.60 37.84 L36.75 37.68 L36.89 37.52 L37.03 37.35 L37.17 37.19 L37.30 37.03 L37.43 36.87 L37.56 36.70 L37.69 36.53 L37.81 36.36 L37.93 36.19 L38.05 36.02 L38.16 35.84 L38.27 35.66 L38.38 35.48 L38.48 35.30 L38.58 35.12 L38.67 34.93 L38.76 34.74 L38.85 34.55 L38.93 34.35 L39.00 34.15 L39.08 33.96 L39.14 33.75 L39.21 33.55 L39.27 33.35 L39.32 33.14 L39.37 32.93 L39.41 32.72 L39.45 32.51 L39.49 32.29 L39.51 32.08 L39.54 31.86 L39.56 31.64 L39.57 31.42 L39.58 31.20 L39.58 30.98 L39.57 30.76 L39.56 30.54 L39.55 30.31 L39.53 30.09 L39.50 29.86 L39.47 29.64 L39.43 29.41 L39.38 29.19 L39.33 28.96 L39.28 28.74 L39.21 28.51 L39.14 28.29 L39.07 28.07 L38.99 27.84 L38.90 27.62 L38.81 27.40 L38.70 27.18 L38.60 26.96 L38.48 26.75 L38.37 26.53 L38.24 26.32 L38.11 26.11 L37.97 25.91 L37.82 25.70 L37.67 25.50 L37.51 25.30 L37.35 25.10 L37.18 24.91 L37.00 24.72 L36.82 24.53 L36.63 24.35 L36.44 24.17 L36.24 24.00 L36.03 23.83 L35.82 23.67 L35.60 23.51 L35.37 23.35 L35.14 23.20 L34.91 23.06 L34.66 22.92 L34.42 22.78 L34.17 22.66 L33.91 22.53 L33.65 22.42 L33.38 22.31 L33.11 22.21 L32.83 22.11 L32.55 22.02 L32.26 21.94 L31.97 21.87 L31.68 21.80 L31.38 21.75 L31.08 21.70 L30.78 21.65 L30.47 21.62 L30.16 21.59 L29.84 21.58 L29.52 21.57 L29.20 21.57 L28.88 21.58 L28.56 21.60 L28.23 21.62 L27.91 21.66 L27.58 21.71 L27.25 21.76 L26.92 21.83 L26.59 21.90 L26.26 21.99 L25.92 22.09 L25.59 22.19 L25.26 22.31 L24.93 22.43 L24.61 22.57 L24.28 22.72 L23.95 22.87 L23.63 23.04 L23.31 23.22 L22.99 23.41 L22.68 23.61 L22.37 23.81 L22.06 24.03 L21.75 24.26 L21.45 24.51 L21.16 24.76 L20.87 25.02 L20.58 25.29 L20.30 25.57 L20.03 25.86 L19.76 26.16 L19.50 26.48 L19.25 26.80 L19.01 27.13 L18.77 27.47 L18.54 27.82 L18.31 28.18 L18.10 28.55 L17.90 28.92 L17.70 29.31 L17.52 29.71 L17.34 30.11 L17.18 30.52 L17.02 30.94 L16.88 31.37 L16.74 31.80 L16.62 32.24 L16.51 32.69 L16.42 33.14 L16.33 33.61 L16.26 34.07 L16.20 34.54 L16.15 35.02 L16.12 35.51 L16.10 35.99 L16.10 36.48 L16.11 36.98 L16.13 37.48 L16.17 37.98 L16.22 38.49 L16.29 38.99 L16.37 39.50 L16.47 40.02 L16.58 40.53 L16.71 41.04 L16.86 41.55 L17.02 42.07 L17.20 42.58 L17.39 43.09 L17.60 43.60 L17.83 44.11 L18.07 44.61 L18.33 45.11 L18.60 45.61 L18.89 46.11 L19.20 46.60 L19.52 47.08 L19.86 47.56 L20.22 48.04 L20.59 48.50 L20.98 48.96 L21.39 49.42 L21.81 49.86 L22.25 50.30 L22.70 50.73 L23.17 51.15 L23.66 51.56 L24.16 51.96 L24.67 52.36 L25.20 52.74 L25.75 53.11 L26.31 53.47 L26.88 53.81 L27.47 54.15 L28.08 54.48 L28.69 54.80 L29.33 55.11 L29.97 55.41 L30.63 55.71 L31.31 56.03 L32.00 56.50 Z"/>
    <path d="M32.00 7.50 L32.71 7.32 L33.42 7.34 L34.13 7.40 L34.83 7.51 L35.53 7.64 L36.22 7.80 L36.91 7.99 L37.58 8.20 L38.25 8.43 L38.91 8.68 L39.55 8.95 L40.19 9.25 L40.82 9.56 L41.43 9.89 L42.03 10.24 L42.62 10.60 L43.20 10.98 L43.76 11.38 L44.31 11.79 L44.84 12.22 L45.36 12.66 L45.87 13.12 L46.36 13.59 L46.83 14.07 L47.29 14.57 L47.73 15.07 L48.15 15.59 L48.56 16.12 L48.95 16.65 L49.33 17.20 L49.68 17.76 L50.02 18.32 L50.34 18.89 L50.64 19.47 L50.93 20.06 L51.19 20.65 L51.44 21.25 L51.67 21.85 L51.88 22.45 L52.08 23.06 L52.25 23.67 L52.40 24.29 L52.54 24.91 L52.66 25.53 L52.76 26.15 L52.84 26.77 L52.90 27.38 L52.95 28.00 L52.98 28.62 L52.98 29.24 L52.97 29.85 L52.95 30.46 L52.90 31.07 L52.84 31.67 L52.76 32.27 L52.66 32.87 L52.55 33.45 L52.42 34.04 L52.27 34.61 L52.11 35.19 L51.93 35.75 L51.74 36.30 L51.53 36.85 L51.30 37.39 L51.06 37.92 L50.81 38.44 L50.54 38.95 L50.26 39.45 L49.96 39.94 L49.66 40.42 L49.34 40.89 L49.00 41.35 L48.66 41.79 L48.30 42.23 L47.94 42.65 L47.56 43.06 L47.17 43.45 L46.77 43.84 L46.37 44.20 L45.95 44.56 L45.52 44.90 L45.09 45.23 L44.65 45.54 L44.20 45.84 L43.75 46.13 L43.29 46.40 L42.82 46.66 L42.35 46.90 L41.88 47.12 L41.40 47.33 L40.91 47.53 L40.42 47.71 L39.93 47.88 L39.44 48.03 L38.94 48.16 L38.45 48.28 L37.95 48.39 L37.45 48.48 L36.95 48.55 L36.45 48.61 L35.95 48.66 L35.46 48.69 L34.96 48.70 L34.47 48.71 L33.98 48.69 L33.49 48.66 L33.00 48.62 L32.52 48.56 L32.04 48.49 L31.57 48.41 L31.10 48.31 L30.64 48.20 L30.18 48.08 L29.73 47.94 L29.29 47.79 L28.85 47.63 L28.42 47.46 L27.99 47.27 L27.58 47.07 L27.17 46.87 L26.77 46.65 L26.38 46.42 L26.00 46.18 L25.62 45.92 L25.26 45.66 L24.91 45.39 L24.56 45.12 L24.23 44.83 L23.91 44.53 L23.59 44.23 L23.29 43.92 L23.00 43.60 L22.72 43.27 L22.45 42.94 L22.20 42.60 L21.95 42.26 L21.72 41.91 L21.50 41.56 L21.29 41.20 L21.09 40.84 L20.90 40.47 L20.73 40.10 L20.57 39.73 L20.42 39.35 L20.28 38.97 L20.16 38.59 L20.04 38.21 L19.94 37.83 L19.86 37.45 L19.78 37.06 L19.72 36.68 L19.66 36.30 L19.62 35.91 L19.60 35.53 L19.58 35.15 L19.58 34.78 L19.58 34.40 L19.60 34.03 L19.63 33.66 L19.67 33.30 L19.72 32.93 L19.79 32.58 L19.86 32.22 L19.94 31.87 L20.04 31.53 L20.14 31.19 L20.26 30.86 L20.38 30.53 L20.52 30.21 L20.66 29.90 L20.81 29.59 L20.97 29.29 L21.14 29.00 L21.32 28.71 L21.50 28.44 L21.69 28.17 L21.89 27.91 L22.10 27.65 L22.31 27.41 L22.53 27.18 L22.76 26.95 L22.99 26.74 L23.23 26.53 L23.47 26.33 L23.72 26.15 L23.97 25.97 L24.23 25.81 L24.49 25.66 L24.76 25.51 L25.03 25.38 L25.30 25.26 L25.57 25.16 L25.85 25.06 L26.13 24.98 L26.42 24.92 L26.71 24.87 L27.00 24.84 L27.30 24.84 L27.61 24.87 L28.00 25.07 L28.00 25.07 L27.95 25.43 L27.82 25.64 L27.68 25.82 L27.54 25.99 L27.40 26.16 L27.25 26.32 L27.11 26.48 L26.97 26.65 L26.83 26.81 L26.70 26.97 L26.57 27.13 L26.44 27.30 L26.31 27.47 L26.19 27.64 L26.07 27.81 L25.95 27.98 L25.84 28.16 L25.73 28.34 L25.62 28.52 L25.52 28.70 L25.42 28.88 L25.33 29.07 L25.24 29.26 L25.15 29.45 L25.07 29.65 L25.00 29.85 L24.92 30.04 L24.86 30.25 L24.79 30.45 L24.73 30.65 L24.68 30.86 L24.63 31.07 L24.59 31.28 L24.55 31.49 L24.51 31.71 L24.49 31.92 L24.46 32.14 L24.44 32.36 L24.43 32.58 L24.42 32.80 L24.42 33.02 L24.43 33.24 L24.44 33.46 L24.45 33.69 L24.47 33.91 L24.50 34.14 L24.53 34.36 L24.57 34.59 L24.62 34.81 L24.67 35.04 L24.72 35.26 L24.79 35.49 L24.86 35.71 L24.93 35.93 L25.01 36.16 L25.10 36.38 L25.19 36.60 L25.30 36.82 L25.40 37.04 L25.52 37.25 L25.63 37.47 L25.76 37.68 L25.89 37.89 L26.03 38.09 L26.18 38.30 L26.33 38.50 L26.49 38.70 L26.65 38.90 L26.82 39.09 L27.00 39.28 L27.18 39.47 L27.37 39.65 L27.56 39.83 L27.76 40.00 L27.97 40.17 L28.18 40.33 L28.40 40.49 L28.63 40.65 L28.86 40.80 L29.09 40.94 L29.34 41.08 L29.58 41.22 L29.83 41.34 L30.09 41.47 L30.35 41.58 L30.62 41.69 L30.89 41.79 L31.17 41.89 L31.45 41.98 L31.74 42.06 L32.03 42.13 L32.32 42.20 L32.62 42.25 L32.92 42.30 L33.22 42.35 L33.53 42.38 L33.84 42.41 L34.16 42.42 L34.48 42.43 L34.80 42.43 L35.12 42.42 L35.44 42.40 L35.77 42.38 L36.09 42.34 L36.42 42.29 L36.75 42.24 L37.08 42.17 L37.41 42.10 L37.74 42.01 L38.08 41.91 L38.41 41.81 L38.74 41.69 L39.07 41.57 L39.39 41.43 L39.72 41.28 L40.05 41.13 L40.37 40.96 L40.69 40.78 L41.01 40.59 L41.32 40.39 L41.63 40.19 L41.94 39.97 L42.25 39.74 L42.55 39.49 L42.84 39.24 L43.13 38.98 L43.42 38.71 L43.70 38.43 L43.97 38.14 L44.24 37.84 L44.50 37.52 L44.75 37.20 L44.99 36.87 L45.23 36.53 L45.46 36.18 L45.69 35.82 L45.90 35.45 L46.10 35.08 L46.30 34.69 L46.48 34.29 L46.66 33.89 L46.82 33.48 L46.98 33.06 L47.12 32.63 L47.26 32.20 L47.38 31.76 L47.49 31.31 L47.58 30.86 L47.67 30.39 L47.74 29.93 L47.80 29.46 L47.85 28.98 L47.88 28.49 L47.90 28.01 L47.90 27.52 L47.89 27.02 L47.87 26.52 L47.83 26.02 L47.78 25.51 L47.71 25.01 L47.63 24.50 L47.53 23.98 L47.42 23.47 L47.29 22.96 L47.14 22.45 L46.98 21.93 L46.80 21.42 L46.61 20.91 L46.40 20.40 L46.17 19.89 L45.93 19.39 L45.67 18.89 L45.40 18.39 L45.11 17.89 L44.80 17.40 L44.48 16.92 L44.14 16.44 L43.78 15.96 L43.41 15.50 L43.02 15.04 L42.61 14.58 L42.19 14.14 L41.75 13.70 L41.30 13.27 L40.83 12.85 L40.34 12.44 L39.84 12.04 L39.33 11.64 L38.80 11.26 L38.25 10.89 L37.69 10.53 L37.12 10.19 L36.53 9.85 L35.92 9.52 L35.31 9.20 L34.67 8.89 L34.03 8.59 L33.37 8.29 L32.69 7.97 L32.00 7.50 Z"/>
    <path d="M58.10 36.60 L58.11 36.96 L58.04 37.30 L57.96 37.64 L57.87 37.97 L57.77 38.31 L57.66 38.64 L57.54 38.96 L57.42 39.29 L57.30 39.61 L57.17 39.93 L57.03 40.25 L56.89 40.57 L56.74 40.88 L56.59 41.19 L56.43 41.50 L56.27 41.81 L56.11 42.11 L55.94 42.41 L55.77 42.71 L55.59 43.00 L55.41 43.29 L55.23 43.58 L55.04 43.87 L54.85 44.15 L54.65 44.43 L54.45 44.70 L54.25 44.98 L54.04 45.24 L53.83 45.51 L53.62 45.77 L53.40 46.03 L53.18 46.29 L52.96 46.54 L52.74 46.79 L52.51 47.04 L52.28 47.28 L52.04 47.52 L51.80 47.75 L51.56 47.98 L51.32 48.21 L51.07 48.43 L50.82 48.65 L50.57 48.87 L50.32 49.08 L50.06 49.29 L49.81 49.50 L49.54 49.70 L49.28 49.90 L49.02 50.09 L48.75 50.28 L48.48 50.46 L48.21 50.64 L47.93 50.82 L47.66 50.99 L47.38 51.16 L47.10 51.33 L46.82 51.49 L46.54 51.65 L46.25 51.80 L45.97 51.95 L45.68 52.09 L45.39 52.23 L45.10 52.37 L44.81 52.50 L44.52 52.63 L44.22 52.75 L43.93 52.87 L43.63 52.99 L43.34 53.10 L43.04 53.21 L42.74 53.31 L42.44 53.41 L42.14 53.50 L41.84 53.59 L41.54 53.68 L41.24 53.76 L40.93 53.83 L40.63 53.91 L40.33 53.97 L40.02 54.04 L39.72 54.10 L39.41 54.15 L39.11 54.21 L38.80 54.25 L38.50 54.30 L38.19 54.33 L37.89 54.37 L37.58 54.40 L37.28 54.43 L36.98 54.45 L36.67 54.47 L36.37 54.48 L36.07 54.49 L35.76 54.49 L35.46 54.49 L35.16 54.49 L34.86 54.48 L34.56 54.47 L34.26 54.46 L33.96 54.44 L33.67 54.42 L33.37 54.39 L33.07 54.36 L32.78 54.32 L32.49 54.28 L32.19 54.24 L31.90 54.19 L31.61 54.14 L31.33 54.09 L31.04 54.03 L30.75 53.97 L30.47 53.90 L30.19 53.83 L29.90 53.76 L29.63 53.68 L29.35 53.60 L29.07 53.52 L28.80 53.43 L28.53 53.34 L28.25 53.24 L27.99 53.14 L27.72 53.04 L27.45 52.93 L27.19 52.83 L26.93 52.71 L26.67 52.60 L26.42 52.48 L26.16 52.36 L25.91 52.23 L25.66 52.10 L25.41 51.97 L25.17 51.84 L24.93 51.70 L24.69 51.56 L24.45 51.41 L24.22 51.27 L23.98 51.12 L23.75 50.96 L23.53 50.81 L23.30 50.65 L23.08 50.49 L22.86 50.33 L22.65 50.16 L22.43 49.99 L22.22 49.82 L22.02 49.65 L21.81 49.47 L21.61 49.29 L21.41 49.11 L21.22 48.93 L21.02 48.74 L20.83 48.55 L20.65 48.36 L20.47 48.17 L20.29 47.98 L20.11 47.78 L19.94 47.58 L19.76 47.38 L19.60 47.18 L19.43 46.98 L19.27 46.77 L19.12 46.56 L18.96 46.35 L18.81 46.14 L18.67 45.93 L18.52 45.72 L18.38 45.50 L18.25 45.28 L18.11 45.06 L17.98 44.84 L17.86 44.62 L17.73 44.40 L17.61 44.18 L17.50 43.95 L17.39 43.73 L17.28 43.50 L17.18 43.27 L17.07 43.04 L16.98 42.81 L16.88 42.58 L16.79 42.35 L16.71 42.12 L16.63 41.89 L16.55 41.65 L16.48 41.42 L16.41 41.19 L16.34 40.95 L16.28 40.72 L16.22 40.48 L16.17 40.24 L16.12 40.01 L16.07 39.77 L16.03 39.53 L16.00 39.29 L15.97 39.05 L15.95 38.81 L15.94 38.57 L15.93 38.33 L15.94 38.08 L16.03 37.81 L16.03 37.81 L16.19 37.99 L16.29 38.19 L16.38 38.39 L16.47 38.59 L16.56 38.79 L16.65 39.00 L16.73 39.20 L16.82 39.40 L16.91 39.61 L17.00 39.81 L17.09 40.01 L17.18 40.21 L17.28 40.41 L17.37 40.61 L17.47 40.81 L17.57 41.01 L17.68 41.21 L17.78 41.41 L17.89 41.61 L18.00 41.80 L18.11 42.00 L18.23 42.19 L18.34 42.38 L18.46 42.58 L18.58 42.77 L18.71 42.96 L18.83 43.15 L18.96 43.33 L19.09 43.52 L19.22 43.71 L19.36 43.89 L19.50 44.07 L19.64 44.26 L19.78 44.44 L19.92 44.62 L20.07 44.79 L20.22 44.97 L20.37 45.14 L20.53 45.32 L20.68 45.49 L20.84 45.66 L21.00 45.83 L21.16 45.99 L21.33 46.16 L21.50 46.32 L21.67 46.48 L21.84 46.64 L22.02 46.80 L22.19 46.96 L22.37 47.11 L22.55 47.27 L22.74 47.42 L22.92 47.57 L23.11 47.71 L23.30 47.86 L23.49 48.00 L23.69 48.14 L23.88 48.28 L24.08 48.42 L24.28 48.55 L24.48 48.69 L24.69 48.82 L24.89 48.94 L25.10 49.07 L25.31 49.19 L25.53 49.31 L25.74 49.43 L25.96 49.55 L26.18 49.66 L26.40 49.77 L26.62 49.88 L26.84 49.99 L27.07 50.09 L27.29 50.20 L27.52 50.29 L27.75 50.39 L27.99 50.48 L28.22 50.58 L28.46 50.66 L28.69 50.75 L28.93 50.83 L29.17 50.91 L29.42 50.99 L29.66 51.06 L29.90 51.14 L30.15 51.20 L30.40 51.27 L30.65 51.33 L30.90 51.39 L31.15 51.45 L31.40 51.50 L31.66 51.55 L31.91 51.60 L32.17 51.65 L32.43 51.69 L32.69 51.73 L32.95 51.76 L33.21 51.79 L33.47 51.82 L33.74 51.85 L34.00 51.87 L34.27 51.89 L34.53 51.91 L34.80 51.92 L35.07 51.93 L35.34 51.94 L35.61 51.94 L35.88 51.94 L36.15 51.93 L36.42 51.93 L36.69 51.92 L36.96 51.90 L37.23 51.88 L37.51 51.86 L37.78 51.84 L38.06 51.81 L38.33 51.78 L38.61 51.74 L38.88 51.70 L39.16 51.66 L39.43 51.62 L39.71 51.57 L39.98 51.51 L40.26 51.46 L40.53 51.40 L40.81 51.33 L41.09 51.27 L41.36 51.19 L41.64 51.12 L41.91 51.04 L42.19 50.96 L42.46 50.87 L42.74 50.78 L43.01 50.69 L43.28 50.59 L43.56 50.49 L43.83 50.39 L44.10 50.28 L44.37 50.17 L44.64 50.05 L44.91 49.93 L45.18 49.81 L45.45 49.68 L45.71 49.55 L45.98 49.42 L46.25 49.28 L46.51 49.14 L46.77 49.00 L47.04 48.85 L47.30 48.69 L47.56 48.54 L47.81 48.38 L48.07 48.21 L48.33 48.05 L48.58 47.87 L48.84 47.70 L49.09 47.52 L49.34 47.34 L49.59 47.15 L49.83 46.96 L50.08 46.77 L50.32 46.57 L50.56 46.37 L50.80 46.17 L51.04 45.96 L51.28 45.75 L51.51 45.53 L51.74 45.32 L51.97 45.09 L52.20 44.87 L52.43 44.64 L52.65 44.41 L52.87 44.17 L53.09 43.93 L53.31 43.69 L53.52 43.44 L53.73 43.19 L53.94 42.94 L54.15 42.68 L54.36 42.43 L54.56 42.16 L54.76 41.90 L54.96 41.63 L55.15 41.35 L55.35 41.08 L55.54 40.80 L55.72 40.52 L55.91 40.23 L56.09 39.94 L56.27 39.65 L56.45 39.36 L56.63 39.06 L56.80 38.76 L56.97 38.46 L57.15 38.15 L57.32 37.84 L57.49 37.53 L57.66 37.22 L57.85 36.91 L58.10 36.60 Z"/>
    <path d="M5.90 27.40 L5.89 27.04 L5.96 26.70 L6.04 26.36 L6.13 26.03 L6.23 25.69 L6.34 25.36 L6.46 25.04 L6.58 24.71 L6.70 24.39 L6.83 24.07 L6.97 23.75 L7.11 23.43 L7.26 23.12 L7.41 22.81 L7.57 22.50 L7.73 22.19 L7.89 21.89 L8.06 21.59 L8.23 21.29 L8.41 21.00 L8.59 20.71 L8.77 20.42 L8.96 20.13 L9.15 19.85 L9.35 19.57 L9.55 19.30 L9.75 19.02 L9.96 18.76 L10.17 18.49 L10.38 18.23 L10.60 17.97 L10.82 17.71 L11.04 17.46 L11.26 17.21 L11.49 16.96 L11.72 16.72 L11.96 16.48 L12.20 16.25 L12.44 16.02 L12.68 15.79 L12.93 15.57 L13.18 15.35 L13.43 15.13 L13.68 14.92 L13.94 14.71 L14.19 14.50 L14.46 14.30 L14.72 14.10 L14.98 13.91 L15.25 13.72 L15.52 13.54 L15.79 13.36 L16.07 13.18 L16.34 13.01 L16.62 12.84 L16.90 12.67 L17.18 12.51 L17.46 12.35 L17.75 12.20 L18.03 12.05 L18.32 11.91 L18.61 11.77 L18.90 11.63 L19.19 11.50 L19.48 11.37 L19.78 11.25 L20.07 11.13 L20.37 11.01 L20.66 10.90 L20.96 10.79 L21.26 10.69 L21.56 10.59 L21.86 10.50 L22.16 10.41 L22.46 10.32 L22.76 10.24 L23.07 10.17 L23.37 10.09 L23.67 10.03 L23.98 9.96 L24.28 9.90 L24.59 9.85 L24.89 9.79 L25.20 9.75 L25.50 9.70 L25.81 9.67 L26.11 9.63 L26.42 9.60 L26.72 9.57 L27.02 9.55 L27.33 9.53 L27.63 9.52 L27.93 9.51 L28.24 9.51 L28.54 9.51 L28.84 9.51 L29.14 9.52 L29.44 9.53 L29.74 9.54 L30.04 9.56 L30.33 9.58 L30.63 9.61 L30.93 9.64 L31.22 9.68 L31.51 9.72 L31.81 9.76 L32.10 9.81 L32.39 9.86 L32.67 9.91 L32.96 9.97 L33.25 10.03 L33.53 10.10 L33.81 10.17 L34.10 10.24 L34.37 10.32 L34.65 10.40 L34.93 10.48 L35.20 10.57 L35.47 10.66 L35.75 10.76 L36.01 10.86 L36.28 10.96 L36.55 11.07 L36.81 11.17 L37.07 11.29 L37.33 11.40 L37.58 11.52 L37.84 11.64 L38.09 11.77 L38.34 11.90 L38.59 12.03 L38.83 12.16 L39.07 12.30 L39.31 12.44 L39.55 12.59 L39.78 12.73 L40.02 12.88 L40.25 13.04 L40.47 13.19 L40.70 13.35 L40.92 13.51 L41.14 13.67 L41.35 13.84 L41.57 14.01 L41.78 14.18 L41.98 14.35 L42.19 14.53 L42.39 14.71 L42.59 14.89 L42.78 15.07 L42.98 15.26 L43.17 15.45 L43.35 15.64 L43.53 15.83 L43.71 16.02 L43.89 16.22 L44.06 16.42 L44.24 16.62 L44.40 16.82 L44.57 17.02 L44.73 17.23 L44.88 17.44 L45.04 17.65 L45.19 17.86 L45.33 18.07 L45.48 18.28 L45.62 18.50 L45.75 18.72 L45.89 18.94 L46.02 19.16 L46.14 19.38 L46.27 19.60 L46.39 19.82 L46.50 20.05 L46.61 20.27 L46.72 20.50 L46.82 20.73 L46.93 20.96 L47.02 21.19 L47.12 21.42 L47.21 21.65 L47.29 21.88 L47.37 22.11 L47.45 22.35 L47.52 22.58 L47.59 22.81 L47.66 23.05 L47.72 23.28 L47.78 23.52 L47.83 23.76 L47.88 23.99 L47.93 24.23 L47.97 24.47 L48.00 24.71 L48.03 24.95 L48.05 25.19 L48.06 25.43 L48.07 25.67 L48.06 25.92 L47.97 26.19 L47.97 26.19 L47.81 26.01 L47.71 25.81 L47.62 25.61 L47.53 25.41 L47.44 25.21 L47.35 25.00 L47.27 24.80 L47.18 24.60 L47.09 24.39 L47.00 24.19 L46.91 23.99 L46.82 23.79 L46.72 23.59 L46.63 23.39 L46.53 23.19 L46.43 22.99 L46.32 22.79 L46.22 22.59 L46.11 22.39 L46.00 22.20 L45.89 22.00 L45.77 21.81 L45.66 21.62 L45.54 21.42 L45.42 21.23 L45.29 21.04 L45.17 20.85 L45.04 20.67 L44.91 20.48 L44.78 20.29 L44.64 20.11 L44.50 19.93 L44.36 19.74 L44.22 19.56 L44.08 19.38 L43.93 19.21 L43.78 19.03 L43.63 18.86 L43.47 18.68 L43.32 18.51 L43.16 18.34 L43.00 18.17 L42.84 18.01 L42.67 17.84 L42.50 17.68 L42.33 17.52 L42.16 17.36 L41.98 17.20 L41.81 17.04 L41.63 16.89 L41.45 16.73 L41.26 16.58 L41.08 16.43 L40.89 16.29 L40.70 16.14 L40.51 16.00 L40.31 15.86 L40.12 15.72 L39.92 15.58 L39.72 15.45 L39.52 15.31 L39.31 15.18 L39.11 15.06 L38.90 14.93 L38.69 14.81 L38.47 14.69 L38.26 14.57 L38.04 14.45 L37.82 14.34 L37.60 14.23 L37.38 14.12 L37.16 14.01 L36.93 13.91 L36.71 13.80 L36.48 13.71 L36.25 13.61 L36.01 13.52 L35.78 13.42 L35.54 13.34 L35.31 13.25 L35.07 13.17 L34.83 13.09 L34.58 13.01 L34.34 12.94 L34.10 12.86 L33.85 12.80 L33.60 12.73 L33.35 12.67 L33.10 12.61 L32.85 12.55 L32.60 12.50 L32.34 12.45 L32.09 12.40 L31.83 12.35 L31.57 12.31 L31.31 12.27 L31.05 12.24 L30.79 12.21 L30.53 12.18 L30.26 12.15 L30.00 12.13 L29.73 12.11 L29.47 12.09 L29.20 12.08 L28.93 12.07 L28.66 12.06 L28.39 12.06 L28.12 12.06 L27.85 12.07 L27.58 12.07 L27.31 12.08 L27.04 12.10 L26.77 12.12 L26.49 12.14 L26.22 12.16 L25.94 12.19 L25.67 12.22 L25.39 12.26 L25.12 12.30 L24.84 12.34 L24.57 12.38 L24.29 12.43 L24.02 12.49 L23.74 12.54 L23.47 12.60 L23.19 12.67 L22.91 12.73 L22.64 12.81 L22.36 12.88 L22.09 12.96 L21.81 13.04 L21.54 13.13 L21.26 13.22 L20.99 13.31 L20.72 13.41 L20.44 13.51 L20.17 13.61 L19.90 13.72 L19.63 13.83 L19.36 13.95 L19.09 14.07 L18.82 14.19 L18.55 14.32 L18.29 14.45 L18.02 14.58 L17.75 14.72 L17.49 14.86 L17.23 15.00 L16.96 15.15 L16.70 15.31 L16.44 15.46 L16.19 15.62 L15.93 15.79 L15.67 15.95 L15.42 16.13 L15.16 16.30 L14.91 16.48 L14.66 16.66 L14.41 16.85 L14.17 17.04 L13.92 17.23 L13.68 17.43 L13.44 17.63 L13.20 17.83 L12.96 18.04 L12.72 18.25 L12.49 18.47 L12.26 18.68 L12.03 18.91 L11.80 19.13 L11.57 19.36 L11.35 19.59 L11.13 19.83 L10.91 20.07 L10.69 20.31 L10.48 20.56 L10.27 20.81 L10.06 21.06 L9.85 21.32 L9.64 21.57 L9.44 21.84 L9.24 22.10 L9.04 22.37 L8.85 22.65 L8.65 22.92 L8.46 23.20 L8.28 23.48 L8.09 23.77 L7.91 24.06 L7.73 24.35 L7.55 24.64 L7.37 24.94 L7.20 25.24 L7.03 25.54 L6.85 25.85 L6.68 26.16 L6.51 26.47 L6.34 26.78 L6.15 27.09 L5.90 27.40 Z"/>
  </g>
  <circle cx="32" cy="32" r="5.2" fill="#1F3A63"/>
</svg>
